<svg xmlns="http://www.w3.org/2000/svg" width="1024" height="1024" viewBox="0 0 1024 1024">
<path d="M 432 753 Z" fill="black"/><path d="M 606 742 Z" fill="black"/><path d="M 405 730 Z" fill="black"/><path d="M 623 728 Z" fill="black"/><path d="M 670 678 Z" fill="black"/><path d="M 338 661 Z" fill="black"/><path d="M 331 646 Z" fill="black"/><path d="M 717 600 Z" fill="black"/><path d="M 733 567 Z" fill="black"/><path d="M 751 350 L 751 351 Z" fill="black"/><path d="M 321 314 Z" fill="black"/><path d="M 393 275 Z" fill="black"/><path d="M 393 273 Z" fill="black"/><path d="M 412 265 Z" fill="black"/><path d="M 488 225 Z" fill="black"/><path d="M 510 224 L 408 268 L 278 345 L 277 455 L 284 531 L 305 596 L 343 662 L 425 747 L 513 799 L 565 770 L 642 706 L 678 665 L 708 616 L 730 564 L 744 499 L 747 347 L 646 284 Z" fill="black"/>
</svg>